<?xml version="1.0" encoding="UTF-8"?>
<svg id="Calque_1" xmlns="http://www.w3.org/2000/svg" version="1.1" viewBox="0 0 1000 1000">
  <!-- Generator: Adobe Illustrator 29.3.1, SVG Export Plug-In . SVG Version: 2.1.0 Build 151)  -->
  <defs>
    <style>
      .st0 {
        isolation: isolate;
      }
    </style>
  </defs>
  <g>
    <path d="M628.1,195.8c-4.7-4-9.5-7.7-14.6-11.1-32.3-22.3-71.4-35.4-113.5-35.4-110.2,0-199.9,89.7-199.9,199.9s89.7,199.9,199.9,199.9,199.9-89.7,199.9-199.9-28-116.7-71.9-153.4h0ZM500,155.6c41.2,0,79.4,12.9,110.8,34.8-34.9,70.9-94.3,122.5-136.7,173.7-.7.8-1.4,1.6-2.1,2.5-23.9-16.6-48.8-40.5-61.2-74.6-18.1-49.7-1.6-99,5.2-117.2,25.4-12.3,53.9-19.1,84-19.1h0ZM467.6,404.5c3.1-4.3,6-8,8.6-11.2,3,2.6,6.7,6,10.9,10.1,2,1.9,5,4.9,8.8,9,3.2,3.5,6.6,7.2,10.5,12.5,2.1,2.9,4.8,6.7,7.7,11.6-25.5,7.2-51,14.5-76.5,21.7,4.1-9.3,8.1-17.1,11.2-23.1,2.7-5,5.6-10.6,10.2-17.8,3.6-5.7,6.7-10.2,8.7-12.9h0ZM306.4,349.2c0-75.7,43.4-141.2,106.8-173.1-10.7,20.8-32,76.6-9.7,133.8,14.5,37.3,41.6,59.8,57.5,70.6-33.9,43.6-58.5,88.5-55.4,137.7-59.1-33.1-99.1-96.4-99.1-169h0ZM434,470l86.4-21.3c1.6,3.9,3.6,9,5.6,15,1.4,4.2,3.2,9.5,4.8,16.3,1.2,5.2,2.6,12.1,3.5,20.4l-104.4,6.4c0-11.2,1.3-25.9,4.1-36.8h0ZM532.4,540.1c-10.5,1.8-21.3,2.7-32.4,2.7-23.7,0-46.4-4.3-67.4-12.1-.2-1.2-.5-2.4-.7-3.6-.5-2.6-.9-5.2-1.2-7.8l104.1-4.2c-.2,8.2-1,16.6-2.5,24.9h0ZM562.7,532.4c2.3-14.9,3.6-37.7-3.9-63.5-8.4-28.8-23.7-47.5-33.4-59.1-13.1-15.7-26.5-26.4-36.2-33.3.4-.5.8-1,1.2-1.5,39.9-50.2,102.9-105.2,134.8-173.2,41.7,35.5,68.2,88.4,68.2,147.5,0,85-54.7,157.2-130.9,183.2Z"/>
    <g>
      <path d="M466.5,318.4c-8.3,1.8-16.5-3.2-18.3-11.3-1.9-8.1,3.5-16.2,11.8-18,8.3-1.9,16.6,3.1,18.3,11.3,1.8,8.1-3.4,16.1-11.8,18Z"/>
      <path d="M514.1,276.8c-15,3.4-29.9-5.7-33.2-20.3-3.2-14.6,6.3-29.2,21.4-32.6,15-3.4,29.8,5.7,33.2,20.3,3.3,14.6-6.3,29.2-21.3,32.6Z"/>
    </g>
  </g>
  <g>
    <g class="st0">
      <g class="st0">
        <path d="M110.2,734.4c-4.1-2.7-6.9-6.3-8.3-10.9-1.4-4.5-2-10.1-2-16.8v-76.6c0-1.3.3-2.1.8-2.4.5-.4,1.9-.6,4-.7,2.1-.1,6.6-.2,13.3-.2v80.6c0,5.5.7,9.3,2,11.6,1.4,2.3,4,3.5,8,3.5s7-.6,9.3-1.9v-90.5c0-1.3.3-2.1.8-2.4.5-.4,1.8-.6,3.9-.7,2.1-.1,6.5-.2,13.1-.2v105.7c-2.3,1.5-5.9,2.8-10.7,4.1-4.8,1.3-10.3,1.9-16.4,1.9s-13.7-1.4-17.9-4.1Z"/>
      </g>
      <g class="st0">
        <path d="M207.9,627.7c.6-.4,2.3-.6,5.1-.7,2.8-.1,6.7-.2,11.5-.2v107c0,.9-.3,1.7-.8,2.3-.5.6-1.3.9-2.4.9h-13.5l-16.7-42.2c-2.7-7-5.9-18.7-9.4-34.9,1.4,13.4,2,25.5,2,36.2v37.8c0,1.2-.3,1.9-.8,2.3-.5.4-2.2.6-5.1.7-2.9.1-6.7.2-11.6.2v-107c0-2.1,1-3.1,3.1-3.1h13.8l16.5,41.4c2.6,6.6,5.7,17.7,9.3,33.4-1.4-12.7-2-24.3-2-34.9v-36.7c0-1.2.3-1.9.9-2.3Z"/>
        <path d="M237.1,634.5c0-2.8.3-4.7.9-5.7.6-.9,1.9-1.5,4-1.7,2.1-.2,6.4-.3,12.9-.3v107c0,1.2-.3,1.9-.8,2.3-.5.4-2.3.6-5.2.7-2.9.1-6.9.2-11.8.2v-102.4Z"/>
        <path d="M282.2,728.6c-2.3-10.4-5.6-27.2-9.8-50.6-4.2-23.3-7.1-38.9-8.4-46.7-.2-1.3-.3-2-.3-2.4,0-.8.3-1.4.9-1.7.6-.3,1.7-.5,3.3-.5h14.6l8,51.6c1.6,10.2,3.5,24.9,5.8,44.2,1.5-16.6,3.2-31.3,5.2-44.2l6.9-46.9c.2-1.8.6-3,1.2-3.7.6-.7,1.6-1,3.1-1h15.4l-20.9,110.1c-5.1.6-10.2.9-15.3.9s-8.4-3.1-9.8-9.3Z"/>
        <path d="M354.3,721.4h22.3c0,4.2,0,7.6-.2,10.1-.1,2.5-.3,4.1-.7,4.6-.4.6-1.1.9-2.1.9h-36.8v-107c0-.5.2-1.2.6-2,.4-.8,1.3-1.2,2.5-1.2h37.8c0,4,0,7.2-.2,9.8-.1,2.5-.4,4.1-.8,4.8-.4.7-1.2,1-2.2,1h-20.3v26.9h19.2c0,3.9,0,7.1-.2,9.7-.1,2.6-.3,4.3-.7,5.1-.4.8-1,1.3-2,1.3h-16.4v36Z"/>
        <path d="M434,706.6c2.7,7.3,4.2,16.3,4.5,26.9,0,1.2-.2,2-.6,2.5-.4.5-1.2.9-2.4,1.1s-3.3.3-6.1.3-6.2-.2-10.2-.5c-.2-10.9-1.3-19.8-3.3-26.7-2-6.9-4.3-12.2-6.9-16-.6.1-1.6.2-2.8.2h-1.3v39.3c0,1.2-.3,1.9-.9,2.3-.6.4-2.3.6-5.1.7-2.8.1-6.7.2-11.5.2v-107c0-.5.2-1.2.6-2,.4-.8,1.3-1.2,2.5-1.2h14.8c7,0,12.7.9,17.2,2.8,4.4,1.9,7.8,5.2,10.1,9.9,2.3,4.7,3.5,11.3,3.5,19.7,0,14-3.7,23.8-11,29.6,3.4,4.5,6.4,10.4,9,17.8ZM404.8,678.2h3.3c2.7,0,4.8-1.4,6.1-4.2,1.4-2.8,2-8.1,2-15.7s-.6-9.8-1.7-12.4c-1.1-2.6-2.9-3.9-5.4-3.9h-4.4v36.3Z"/>
        <path d="M451,735.4c-3.5-2-5.3-4.5-5.3-7.5s.3-4,1-6.2c.7-2.3,1.7-4.4,2.9-6.4,1.7,1.6,3.9,2.8,6.5,3.8s5.4,1.4,8.1,1.4c4.2,0,7.2-1,9-3.1,1.8-2.1,2.7-5.1,2.7-9.1s-.5-5.3-1.5-7.7c-1-2.4-2.9-5.5-5.6-9.1l-14.3-19c-3.5-4.5-5.8-8.5-7.1-12.1-1.3-3.6-1.9-7.2-1.9-11,0-7.3,2.4-13.2,7.2-17.5,4.8-4.4,11.7-6.5,20.8-6.5s13.1.7,16.4,2.2c3.3,1.5,5,3.7,5,6.6s-1.4,6.7-4.1,9.8c-.9-.7-2.8-1.4-5.5-2.1-2.7-.7-5.5-1-8.2-1-4,0-7.1.7-9.3,2-2.2,1.4-3.3,3.4-3.3,6.1s.4,4.6,1.3,6.6c.8,2,2.4,4.5,4.6,7.4l15.1,19.4c3.7,4.7,6.2,9,7.5,12.8,1.3,3.8,2,8.1,2,12.8,0,9.1-2.2,16.5-6.5,22.2-4.3,5.7-11.7,8.5-22.2,8.5s-11.8-1-15.3-3.1Z"/>
        <path d="M505.2,634.5c0-2.8.3-4.7.9-5.7.6-.9,1.9-1.5,4-1.7,2.1-.2,6.4-.3,12.9-.3v107c0,1.2-.3,1.9-.8,2.3-.5.4-2.3.6-5.2.7-2.9.1-6.9.2-11.8.2v-102.4Z"/>
        <path d="M589.2,626.8v13.2c0,1.3-.2,2.1-.7,2.5-.5.4-1.3.6-2.4.6h-16.8v90.6c0,1.2-.3,1.9-.9,2.3-.6.4-2.3.6-5.1.7-2.8.1-6.7.2-11.5.2v-93.8h-19.2v-13.2c0-2.1,1-3.1,3.1-3.1h53.5Z"/>
        <path d="M616.1,721.4h22.3c0,4.2,0,7.6-.2,10.1-.1,2.5-.3,4.1-.7,4.6-.4.6-1.1.9-2.1.9h-36.8v-107c0-.5.2-1.2.6-2,.4-.8,1.3-1.2,2.5-1.2h37.8c0,4,0,7.2-.2,9.8-.1,2.5-.4,4.1-.8,4.8-.4.7-1.2,1-2.2,1h-20.3v26.9h19.2c0,3.9,0,7.1-.2,9.7-.1,2.6-.3,4.3-.7,5.1-.4.8-1,1.3-2,1.3h-16.4v36ZM608.8,617c-1-1.4-1.8-2.9-2.3-4.4-.5-1.5-.8-2.5-.9-3.1,1.7-2.3,4-4.9,7-7.8,3-2.9,5.8-5.4,8.6-7.6,2.7-2.1,4.4-3.2,5-3.2,1.8,0,3.4,1.3,5,4,1.5,2.7,2.5,5.6,3.1,8.9-1.8,2.1-5.6,5.1-11.6,9.1-5.9,4-9.4,6-10.3,6.1-1.4,0-2.5-.7-3.5-2.1Z"/>
        <path d="M692,721.4h22.3c0,4.2,0,7.6-.2,10.1-.1,2.5-.3,4.1-.7,4.6-.4.6-1.1.9-2.1.9h-36.8v-107c0-.5.2-1.2.6-2,.4-.8,1.3-1.2,2.5-1.2h37.8c0,4,0,7.2-.2,9.8-.1,2.5-.4,4.1-.8,4.8-.4.7-1.2,1-2.2,1h-20.3v26.9h19.2c0,3.9,0,7.1-.2,9.7-.1,2.6-.3,4.3-.7,5.1-.4.8-1,1.3-2,1.3h-16.4v36ZM684.6,617c-1-1.4-1.8-2.9-2.3-4.4-.5-1.5-.8-2.5-.9-3.1,1.7-2.3,4-4.9,7-7.8,3-2.9,5.8-5.4,8.6-7.6,2.7-2.1,4.4-3.2,5-3.2,1.8,0,3.4,1.3,5,4,1.5,2.7,2.5,5.6,3.1,8.9-1.8,2.1-5.6,5.1-11.6,9.1-5.9,4-9.4,6-10.3,6.1-1.4,0-2.5-.7-3.5-2.1Z"/>
        <path d="M739.6,728.6c-2.3-10.4-5.6-27.2-9.8-50.6-4.2-23.3-7.1-38.9-8.4-46.7-.2-1.3-.3-2-.3-2.4,0-.8.3-1.4.9-1.7.6-.3,1.7-.5,3.3-.5h14.6l8,51.6c1.6,10.2,3.5,24.9,5.8,44.2,1.5-16.6,3.2-31.3,5.2-44.2l6.9-46.9c.2-1.8.6-3,1.2-3.7.6-.7,1.6-1,3.1-1h15.4l-20.9,110.1c-5.1.6-10.2.9-15.3.9s-8.4-3.1-9.8-9.3Z"/>
      </g>
      <g class="st0">
        <path d="M840.9,706.6c2.7,7.3,4.2,16.3,4.5,26.9,0,1.2-.2,2-.6,2.5-.4.5-1.2.9-2.4,1.1s-3.3.3-6.1.3-6.2-.2-10.2-.5c-.2-10.9-1.3-19.8-3.3-26.7-2-6.9-4.3-12.2-6.9-16-.6.1-1.6.2-2.8.2h-1.3v39.3c0,1.2-.3,1.9-.9,2.3-.6.4-2.3.6-5.1.7-2.8.1-6.7.2-11.5.2v-107c0-.5.2-1.2.6-2,.4-.8,1.3-1.2,2.5-1.2h14.8c7,0,12.7.9,17.2,2.8,4.4,1.9,7.8,5.2,10.1,9.9,2.3,4.7,3.5,11.3,3.5,19.7,0,14-3.7,23.8-11,29.6,3.4,4.5,6.4,10.4,9,17.8ZM811.7,678.2h3.3c2.7,0,4.8-1.4,6.1-4.2,1.4-2.8,2-8.1,2-15.7s-.6-9.8-1.7-12.4c-1.1-2.6-2.9-3.9-5.4-3.9h-4.4v36.3Z"/>
      </g>
      <g class="st0">
        <path d="M885,733.8c0,1.2-.2,1.9-.7,2.3-.5.4-2.2.6-5,.7-2.9.1-6.8.2-11.7.2v-45.3l-19.7-62.1c-.3-.9-.2-1.6.4-1.9.6-.3,2.5-.5,5.9-.6,3.4-.1,7.9-.2,13.7-.2l4.6,20.6c.8,3.7,1.7,8.7,2.7,15.1.9,6.4,1.6,11.5,1.9,15.3.3-3.7,1-8.7,2-15.2,1-6.5,1.9-11.6,2.8-15.3l3.8-17.3c.3-1.2.8-1.9,1.5-2.3.7-.4,2.5-.6,5.3-.7,2.9-.1,6.8-.2,11.9-.2l-19.2,64.2v42.8Z"/>
      </g>
    </g>
    <g class="st0">
      <g class="st0">
        <path d="M272,791c0,5.8-1.8,10.3-5.5,13.4-3.7,3.1-8.9,4.6-15.6,4.6h-4.9v19.3h-11.5v-54.3h17.4c6.6,0,11.6,1.4,15,4.3,3.4,2.8,5.1,7.1,5.1,12.7ZM245.9,799.6h3.8c3.5,0,6.2-.7,8-2.1,1.8-1.4,2.6-3.4,2.6-6.1s-.7-4.7-2.2-6c-1.5-1.3-3.8-1.9-6.9-1.9h-5.2v16.1Z"/>
        <path d="M317,828.4l-3.9-12.9h-19.8l-3.9,12.9h-12.4l19.2-54.6h14.1l19.3,54.6h-12.4ZM310.3,805.8c-3.6-11.7-5.7-18.3-6.2-19.9-.5-1.5-.8-2.8-1-3.6-.8,3.2-3.2,11-7,23.5h14.2Z"/>
        <path d="M349.3,807.6v20.8h-11.5v-54.3h15.8c7.4,0,12.8,1.3,16.4,4,3.5,2.7,5.3,6.8,5.3,12.2s-.9,6-2.6,8.5c-1.8,2.5-4.2,4.4-7.5,5.9,8.2,12.2,13.5,20.1,16,23.7h-12.8l-13-20.8h-6.1ZM349.3,798.2h3.7c3.6,0,6.3-.6,8.1-1.8,1.7-1.2,2.6-3.1,2.6-5.7s-.9-4.4-2.7-5.5c-1.8-1.1-4.5-1.6-8.2-1.6h-3.5v14.7Z"/>
        <path d="M389.5,828.4v-54.3h11.5v54.3h-11.5Z"/>
        <path d="M448.3,813.3c0,4.9-1.8,8.8-5.3,11.6-3.5,2.8-8.4,4.2-14.7,4.2s-10.9-1.1-15.4-3.3v-10.7c3.7,1.6,6.8,2.8,9.3,3.5,2.5.7,4.9,1,7,1s4.5-.5,5.8-1.4c1.4-1,2-2.4,2-4.3s-.3-2-.9-2.8c-.6-.8-1.5-1.6-2.6-2.4-1.2-.8-3.5-2-7-3.7-3.3-1.6-5.8-3.1-7.5-4.5-1.7-1.4-3-3.1-4-5-1-1.9-1.5-4.1-1.5-6.7,0-4.8,1.6-8.6,4.9-11.3,3.3-2.8,7.8-4.1,13.5-4.1s5.5.3,8.1,1c2.6.7,5.2,1.6,8,2.8l-3.7,9c-2.9-1.2-5.3-2-7.2-2.5-1.9-.5-3.8-.7-5.6-.7s-3.9.5-5,1.5c-1.2,1-1.7,2.3-1.7,4s.2,1.9.7,2.7c.5.8,1.2,1.5,2.2,2.2,1,.7,3.5,2,7.3,3.8,5.1,2.4,8.6,4.9,10.4,7.3,1.9,2.4,2.8,5.4,2.8,9Z"/>
        <path d="M455.1,812.6v-9.3h20v9.3h-20Z"/>
        <path d="M517.8,813.3c0,4.9-1.8,8.8-5.3,11.6s-8.4,4.2-14.7,4.2-10.9-1.1-15.4-3.3v-10.7c3.7,1.6,6.8,2.8,9.3,3.5,2.5.7,4.9,1,7,1s4.5-.5,5.8-1.4c1.4-1,2-2.4,2-4.3s-.3-2-.9-2.8c-.6-.8-1.5-1.6-2.6-2.4s-3.5-2-7-3.7c-3.3-1.6-5.8-3.1-7.5-4.5-1.7-1.4-3-3.1-4-5-1-1.9-1.5-4.1-1.5-6.7,0-4.8,1.6-8.6,4.9-11.3,3.3-2.8,7.8-4.1,13.5-4.1s5.5.3,8.1,1c2.6.7,5.2,1.6,8,2.8l-3.7,9c-2.9-1.2-5.3-2-7.2-2.5-1.9-.5-3.8-.7-5.6-.7s-3.9.5-5,1.5c-1.2,1-1.7,2.3-1.7,4s.2,1.9.7,2.7c.5.8,1.2,1.5,2.2,2.2,1,.7,3.5,2,7.3,3.8,5.1,2.4,8.6,4.9,10.4,7.3,1.9,2.4,2.8,5.4,2.8,9Z"/>
        <path d="M562.4,828.4l-3.9-12.9h-19.8l-3.9,12.9h-12.4l19.2-54.6h14.1l19.3,54.6h-12.4ZM555.7,805.8c-3.6-11.7-5.7-18.3-6.2-19.9-.5-1.5-.8-2.8-1-3.6-.8,3.2-3.2,11-7,23.5h14.2Z"/>
        <path d="M606.3,782.9c-4.3,0-7.7,1.6-10.1,4.9-2.4,3.3-3.6,7.8-3.6,13.6,0,12.1,4.5,18.2,13.6,18.2s8.4-1,13.9-2.9v9.7c-4.5,1.9-9.4,2.8-14.9,2.8-7.9,0-13.9-2.4-18.1-7.2-4.2-4.8-6.3-11.7-6.3-20.6s1-10.6,3.1-14.8c2.1-4.2,5-7.5,8.9-9.8,3.9-2.3,8.4-3.4,13.5-3.4s10.6,1.3,15.9,3.8l-3.7,9.4c-2-1-4.1-1.8-6.1-2.5-2.1-.7-4.1-1.1-6.1-1.1Z"/>
        <path d="M633.2,828.4v-54.3h11.5v44.8h22v9.5h-33.6Z"/>
        <path d="M711,828.4l-3.9-12.9h-19.8l-3.9,12.9h-12.4l19.2-54.6h14.1l19.3,54.6h-12.4ZM704.3,805.8c-3.6-11.7-5.7-18.3-6.2-19.9s-.8-2.8-1-3.6c-.8,3.2-3.2,11-7,23.5h14.2Z"/>
        <path d="M748.7,796.4l11.3-22.4h12.4l-18,33.2v21.1h-11.4v-20.8l-18-33.6h12.5l11.3,22.4Z"/>
      </g>
    </g>
  </g>
</svg>