<?xml version="1.0" encoding="UTF-8"?>
<svg id="Calque_1" data-name="Calque 1" xmlns="http://www.w3.org/2000/svg" viewBox="0 0 1000 1000">
  <defs>
    <style>
      .cls-1 {
        font-family: OpenSans-Bold, 'Open Sans';
        font-size: 76.11px;
        letter-spacing: .02em;
      }

      .cls-1, .cls-2, .cls-3 {
        fill: #003a69;
      }

      .cls-1, .cls-3 {
        font-weight: 700;
      }

      .cls-3 {
        font-family: YanoneKaffeesatz-Bold, 'Yanone Kaffeesatz';
        font-size: 157.34px;
      }

      .cls-4 {
        letter-spacing: 0em;
      }

      .cls-5 {
        letter-spacing: .02em;
      }

      .cls-6 {
        letter-spacing: .02em;
      }

      .cls-7 {
        letter-spacing: .01em;
      }
    </style>
  </defs>
  <g>
    <path class="cls-2" d="M628.06,195.83c-4.68-3.96-9.53-7.66-14.56-11.11-32.28-22.34-71.4-35.41-113.52-35.41-110.23,0-199.91,89.69-199.91,199.91s89.69,199.94,199.91,199.94,199.95-89.69,199.95-199.94c0-61.55-27.98-116.72-71.87-153.39ZM499.98,155.63c41.2,0,79.37,12.88,110.76,34.81-34.91,70.89-94.28,122.54-136.68,173.71-.7.82-1.36,1.65-2.06,2.5-23.89-16.61-48.83-40.54-61.24-74.65-18.1-49.69-1.65-98.96,5.19-117.22,25.41-12.28,53.93-19.15,84.02-19.15ZM467.64,404.47c3.07-4.27,6.01-8.01,8.61-11.2,2.97,2.63,6.68,6.01,10.85,10.13,1.99,1.93,5.03,4.94,8.8,9.05,3.16,3.45,6.58,7.19,10.51,12.47,2.12,2.85,4.84,6.74,7.69,11.61-25.51,7.25-51.01,14.49-76.55,21.74,4.15-9.31,8.07-17.09,11.23-23.13,2.66-4.97,5.63-10.6,10.19-17.82,3.58-5.7,6.71-10.16,8.67-12.85ZM306.4,349.22c0-75.67,43.42-141.21,106.75-173.05-10.67,20.76-31.96,76.58-9.68,133.77,14.53,37.34,41.65,59.75,57.47,70.6-33.89,43.61-58.55,88.52-55.41,137.66-59.15-33.1-99.12-96.37-99.12-168.99ZM434,469.98l86.4-21.33c1.61,3.86,3.58,8.96,5.6,15.03,1.42,4.24,3.16,9.46,4.81,16.27,1.23,5.16,2.63,12.09,3.54,20.44l-104.43,6.43c-.06-11.23,1.27-25.92,4.08-36.84ZM532.36,540.11c-10.51,1.8-21.33,2.72-32.37,2.72-23.7,0-46.39-4.27-67.38-12.06-.25-1.2-.51-2.4-.73-3.58-.47-2.63-.85-5.19-1.17-7.79l104.12-4.24c-.16,8.23-.98,16.58-2.47,24.94ZM562.74,532.42c2.34-14.91,3.64-37.72-3.86-63.55-8.39-28.83-23.67-47.47-33.39-59.08-13.13-15.66-26.46-26.43-36.17-33.32.41-.51.82-1.01,1.23-1.55,39.94-50.25,102.85-105.19,134.82-173.17,41.74,35.48,68.23,88.39,68.23,147.47,0,84.97-54.72,157.16-130.86,183.2Z"/>
    <g>
      <path class="cls-2" d="M466.52,318.36c-8.3,1.83-16.5-3.16-18.33-11.27-1.86-8.1,3.47-16.2,11.77-18.04,8.3-1.93,16.57,3.1,18.33,11.27,1.83,8.1-3.38,16.14-11.77,18.04Z"/>
      <path class="cls-2" d="M514.09,276.84c-15.05,3.39-29.88-5.7-33.2-20.32-3.23-14.59,6.26-29.24,21.38-32.6,15.02-3.39,29.85,5.7,33.17,20.32,3.26,14.62-6.26,29.24-21.35,32.6Z"/>
    </g>
  </g>
  <g>
    <text class="cls-3" transform="translate(95.18 736.93)"><tspan class="cls-7" x="0" y="0">U</tspan><tspan class="cls-6" x="66.39" y="0">NIVERSITÉ ÉV</tspan><tspan class="cls-4" x="694.31" y="0">R</tspan><tspan class="cls-5" x="751.74" y="0">Y</tspan></text>
    <text class="cls-1" transform="translate(227.58 828.4)"><tspan x="0" y="0">PARIS-SACLAY</tspan></text>
  </g>
</svg>